<?xml version="1.0" encoding="UTF-8"?>
<svg width="60px" height="57px" viewBox="0 0 60 57" version="1.1" xmlns="http://www.w3.org/2000/svg" xmlns:xlink="http://www.w3.org/1999/xlink">
    <!-- Generator: Sketch 55.2 (78181) - https://sketchapp.com -->
    <title>Group 3</title>
    <desc>Created with Sketch.</desc>
    <g id="Page-1" stroke="none" stroke-width="1" fill="none" fill-rule="evenodd">
        <g id="Group-3" transform="translate(-5.000000, 0.000000)">
            <polygon id="Triangle" fill="#004DFF" transform="translate(11.500000, 50.975322) rotate(-133.000000) translate(-11.500000, -50.975322) " points="11.5 42.4753223 19 59.4753223 4 59.4753223"></polygon>
            <g id="Flag_of_South_Korean_LGBT" transform="translate(9.206676, 0.000000)" fill-rule="nonzero">
                <g id="Group-2">
                    <path d="M27.2689187,0.000516483983 C18.4705632,0.0546028627 9.8532875,4.33108127 4.60544697,12.2030248 C2.61484896,15.1883736 1.86567952,18.9747856 2.5691679,22.4929583 C3.27265627,26.0114966 5.42021441,29.2186726 8.40556324,31.2092706 C11.3909121,33.1996859 15.177324,33.9486726 18.6956795,33.245367 C22.214035,32.5420613 25.4212111,30.3945032 27.4118091,27.4091544 C29.4024071,24.4238055 33.0159619,22.5812142 36.5345001,21.8775431 C40.0530383,21.1740547 43.4327061,21.6184401 46.4180549,23.6090381 C49.4034038,25.5996361 51.2967925,28.8068122 52.0002809,32.3249849 C52.7039519,35.8435231 52.2087692,39.6297524 50.2181712,42.6152839 C58.6148988,30.0201012 55.2131214,12.9993371 42.6179387,4.60279223 C37.8945167,1.45427064 32.5478224,-0.0318257087 27.2689187,0.000516483983 Z M4.60526424,12.2032075 C4.39293866,12.5215132 4.19157653,12.8443869 3.99423434,13.1681743 C4.19121109,12.8423769 4.39494863,12.5204168 4.60526424,12.2032075 Z M3.99441707,13.1681743 C3.51659315,13.9526095 3.08280577,14.7542208 2.69250677,15.5664301 C3.08627753,14.7459982 3.52097853,13.9453005 3.99441707,13.1681743 Z" id="path4072" fill="#FFED00"></path>
                    <path d="M4.60617786,12.2055829 C0.407722713,18.5031743 2.1096164,27.0115464 8.40702504,31.2101843 C14.7046164,35.4086394 23.2131712,33.706563 27.4114436,27.4093371 C31.6098988,21.1117457 40.1184536,19.409852 46.4158622,23.6083072 C52.7134536,27.8067623 54.4151646,36.3154999 50.2168921,42.6127258 C41.8201646,55.2079085 24.8030549,58.6115132 12.2078722,50.2147856 C-0.387310509,41.818058 -3.79036699,24.8005829 4.60617786,12.2055829" id="path4074" fill="#008026"></path>
                    <path d="M42.2133872,33.1099683 C35.9159785,28.9115132 27.4074237,30.6135896 23.2089686,36.9111809 C19.0105134,43.2084068 10.5019586,44.9103005 4.20454996,40.7120281 C3.75669281,40.413274 3.33478251,40.0907657 2.93370278,39.7508985 C7.44881906,48.6886726 16.714035,54.8181577 27.4116264,54.8181577 C35.7820417,54.8181577 43.2744669,51.0648188 48.3021247,45.1507657 C48.5137194,40.5095696 46.3608622,35.8749517 42.2133872,33.1099683 Z" id="Path" fill="#004DFF"></path>
                    <path d="M38.0107294,42.3092208 C31.7133207,38.1107657 23.2047659,39.8124766 19.0063108,46.110068 C17.551643,48.2919783 15.5789519,49.920965 13.3606795,50.9453171 C17.4695998,53.4036892 22.2752476,54.817975 27.4116264,54.817975 C33.4157626,54.817975 38.967839,52.8858487 43.4833207,49.6116128 C42.579932,46.7254833 40.7227227,44.1172773 38.0107294,42.3092208 Z" id="Path" fill="#750787"></path>
                    <path d="M12.7079885,21.4907158 C19.0053971,25.689171 27.5139519,23.9872773 31.7124071,17.6896859 C35.9108622,11.39246 44.4194171,9.69056632 50.7170084,13.8888387 C51.0309287,14.098058 51.3300483,14.3209816 51.6209453,14.5508487 C47.013736,5.8946527 37.901643,0.000699208236 27.4116264,0.000699208236 C19.0934702,0.000699208236 11.6416098,3.70689522 6.61504829,9.55717761 C6.44091208,14.1623769 8.59230743,18.7471112 12.7079885,21.4907158 Z" id="Path" fill="#FF8C00"></path>
                    <path d="M16.8497991,11.9287557 C23.1472078,16.1272108 31.6557626,14.4253171 35.8542177,8.12772579 C37.1849985,6.13146333 38.949932,4.5987723 40.9394337,3.56765934 C36.9480051,1.2980414 32.3316596,0.000699208236 27.4116264,0.000699208236 C21.4891679,0.000699208236 16.0056131,1.87946997 11.5237526,5.07294173 C12.473736,7.78091516 14.278138,10.214254 16.8497991,11.9287557 Z" id="Path" fill="#E40303"></path>
                </g>
            </g>
        </g>
    </g>
</svg>